<svg width="40" height="40" viewBox="0 0 40 40" fill="none" xmlns="http://www.w3.org/2000/svg">
<path d="M16.8461 28.4615C16.8461 26.3846 17.5385 24 18.6154 22.1539C19.9231 19.8462 21.3846 18.9231 22.5385 17.2308C24.4615 14.3846 24.8461 10.3077 23.6154 7.23078C22.3846 4.07693 19.4615 2.23078 16.0769 2.3077C12.6923 2.38463 9.92307 4.46155 8.84614 7.61539C7.61538 11.0769 8.15384 15.2308 10.9231 17.8462C12.0769 18.9231 13.1538 20.6154 12.5385 22.2308C12 23.7692 10.1538 24.4615 8.84614 25.0769C5.84614 26.3846 2.23076 28.2308 1.61538 31.7692C0.999991 34.6923 2.99999 37.6923 6.15384 37.6923H19.2308C19.8461 37.6923 20.2308 36.9231 19.8461 36.4615C17.9231 34.2308 16.8461 31.3846 16.8461 28.4615Z" fill="white"/>
<path d="M29.1539 19.2308C24.0769 19.2308 19.9231 23.3846 19.9231 28.4615C19.9231 33.5385 24.0769 37.6923 29.1539 37.6923C34.2308 37.6923 38.3846 33.5385 38.3846 28.4615C38.3846 23.3846 34.2308 19.2308 29.1539 19.2308ZM33.8462 29.2308C33.8462 29.6923 33.4616 30 33 30H30.7693V32.3077C30.7693 32.7692 30.3846 33.0769 29.9231 33.0769H28.3846C27.9231 33.0769 27.6923 32.7692 27.6923 32.3077V30H25.3077C24.8462 30 24.6154 29.6923 24.6154 29.2308V27.6923C24.6154 27.2308 24.8462 26.9231 25.3077 26.9231H27.6923V24.6154C27.6923 24.1539 27.9231 23.8462 28.3846 23.8462H29.9231C30.3846 23.8462 30.7693 24.1539 30.7693 24.6154V26.9231H33C33.4616 26.9231 33.8462 27.2308 33.8462 27.6923V29.2308Z" fill="white"/>
</svg>
