<svg width="196" height="61" viewBox="0 0 196 61" fill="none" xmlns="http://www.w3.org/2000/svg">
<g filter="url(#filter0_d_133_5)">
<path d="M5 26.9917H10.4603L11.7204 25.0248L12.8404 26.9917H16.2005L17.1106 32.5413L18.5107 12.2397L20.4708 41.1818L21.8708 26.9917H25.441L28.8712 25.0248L31.8114 26.9917H37.6217L38.9518 25.5868L40.4918 26.9917H43.222L44.4121 32.5413L45.6721 12.2397L47.7022 41.1818L49.1023 26.9917H52.4625L55.6826 25.5868L59.0428 26.9917H64.5731L65.9732 25.5868L67.5133 26.9917H70.1034L71.4335 32.5413L72.9036 12.2397L74.7937 41.1818L76.1238 26.9917H79.9039L82.7741 25.376L86.2743 26.9917H91.4546L93.1347 25.376L94.6047 26.9917H103.635L108.956 47.0826L134.087 52L118.126 40.4091L111.196 45.6074L116.376 39.0041L100.975 20.5289L120.926 1L145.778 5.63636L124.846 6.83058L121.626 3.31818L122.466 7.53306L103.635 20.5289L122.466 10.062L117.566 37.5289L124.846 9.5L146.478 27.4835L119.736 39.0041L147.178 29.7314L136.187 51.5083L153.338 31.2066L149.068 28.1157L147.178 8.30579L153.338 27.4835H164.889L166.429 26.4298L167.689 27.4835H170.769L171.959 33.4545L173.359 13.2934L175.249 42.095L176.719 27.4835H180.499L183.65 25.5165L186.66 28.1157H191" stroke="#140F1F" stroke-linecap="round" stroke-linejoin="round"/>
</g>
<defs>
<filter id="filter0_d_133_5" x="0.5" y="0.5" width="195" height="60" filterUnits="userSpaceOnUse" color-interpolation-filters="sRGB">
<feFlood flood-opacity="0" result="BackgroundImageFix"/>
<feColorMatrix in="SourceAlpha" type="matrix" values="0 0 0 0 0 0 0 0 0 0 0 0 0 0 0 0 0 0 127 0" result="hardAlpha"/>
<feOffset dy="4"/>
<feGaussianBlur stdDeviation="2"/>
<feComposite in2="hardAlpha" operator="out"/>
<feColorMatrix type="matrix" values="0 0 0 0 0 0 0 0 0 0 0 0 0 0 0 0 0 0 0.25 0"/>
<feBlend mode="normal" in2="BackgroundImageFix" result="effect1_dropShadow_133_5"/>
<feBlend mode="normal" in="SourceGraphic" in2="effect1_dropShadow_133_5" result="shape"/>
</filter>
</defs>
</svg>
