<svg width="32" height="32" viewBox="0 0 32 32" fill="none" xmlns="http://www.w3.org/2000/svg">
<path d="M16.0615 11.7538C13.6615 11.7538 11.7538 13.6615 11.7538 16.0615C11.7538 18.4615 13.6615 20.3692 16.0615 20.3692C18.4615 20.3692 20.3692 18.4615 20.3692 16.0615C20.3692 13.6615 18.4615 11.7538 16.0615 11.7538Z" fill="#FCFAF8"/>
<path d="M28.9846 19.9385L26.7077 18.0308C26.8308 17.3538 26.8923 16.6154 26.8923 15.9385C26.8923 15.2615 26.8308 14.5231 26.7077 13.8461L28.9846 11.9385C29.7231 11.3231 29.9692 10.2154 29.4769 9.35384L28.4923 7.63076C28.1231 7.01537 27.4462 6.64614 26.7077 6.64614C26.4615 6.64614 26.2154 6.70768 26.0308 6.76922L23.2 7.81537C22.0923 6.83076 20.8615 6.15384 19.5692 5.72307L19.0769 2.83076C18.8923 1.84614 18.0308 1.2923 17.0462 1.2923H15.0769C14.0923 1.2923 13.2308 1.84614 13.0462 2.83076L12.5538 5.66153C11.2 6.0923 9.96923 6.83076 8.86154 7.75384L6.03077 6.70768C5.78462 6.64614 5.6 6.58461 5.35385 6.58461C4.61538 6.58461 3.93846 6.95384 3.56923 7.56922L2.58462 9.2923C2.09231 10.1538 2.27692 11.2615 3.07692 11.8769L5.35385 13.7846C5.23077 14.4615 5.16923 15.2 5.16923 15.8769C5.16923 16.6154 5.23077 17.2923 5.35385 17.9692L3.07692 19.8769C2.33846 20.4923 2.09231 21.6 2.58462 22.4615L3.56923 24.1846C3.93846 24.8 4.61538 25.1692 5.35385 25.1692C5.6 25.1692 5.84615 25.1077 6.03077 25.0461L8.86154 24C9.96923 24.9846 11.2 25.6615 12.4923 26.0923L12.9846 29.0461C13.1692 30.0308 13.9692 30.7077 15.0154 30.7077H16.9846C17.9692 30.7077 18.8308 29.9692 19.0154 28.9846L19.5077 26.0308C20.9231 25.5385 22.2154 24.8 23.3231 23.7538L25.9692 24.8C26.2154 24.8615 26.4615 24.9231 26.7077 24.9231C27.4462 24.9231 28.1231 24.5538 28.4923 23.9385L29.4154 22.3385C29.9692 21.6615 29.7231 20.5538 28.9846 19.9385ZM16.0615 22.8308C12.3077 22.8308 9.29231 19.8154 9.29231 16.0615C9.29231 12.3077 12.3077 9.2923 16.0615 9.2923C19.8154 9.2923 22.8308 12.3077 22.8308 16.0615C22.8308 19.8154 19.8154 22.8308 16.0615 22.8308Z" fill="#FCFAF8"/>
</svg>
