<svg width="32" height="32" viewBox="0 0 32 32" fill="none" xmlns="http://www.w3.org/2000/svg">
<path d="M4.92308 12.3077C6.95385 12.3077 8.61539 13.9692 8.61539 16C8.61539 18.0308 6.95385 19.6923 4.92308 19.6923C2.89231 19.6923 1.23077 18.0308 1.23077 16C1.23077 13.9692 2.89231 12.3077 4.92308 12.3077ZM16 12.3077C18.0308 12.3077 19.6923 13.9692 19.6923 16C19.6923 18.0308 18.0308 19.6923 16 19.6923C13.9692 19.6923 12.3077 18.0308 12.3077 16C12.3077 13.9692 13.9692 12.3077 16 12.3077ZM27.0769 12.3077C29.1077 12.3077 30.7692 13.9692 30.7692 16C30.7692 18.0308 29.1077 19.6923 27.0769 19.6923C25.0462 19.6923 23.3846 18.0308 23.3846 16C23.3846 13.9692 25.0462 12.3077 27.0769 12.3077Z" fill="#FCFAF8"/>
</svg>
